#tb 0: 1/48000
#media_type 0: audio
#codec_id 0: pcm_s16le
#sample_rate 0: 48000
#channel_layout_name 0: mono
0,          0,          0,     9600,    19200, 0x1476501c
0,       9600,       9600,     9600,    19200, 0x1476501c
0,      19200,      19200,     9600,    19200, 0x1476501c
0,      28800,      28800,     9600,    19200, 0x1476501c
0,      38400,      38400,     9600,    19200, 0x1476501c
0,      48000,      48000,     9600,    19200, 0x1476501c
0,      57600,      57600,     9600,    19200, 0x1476501c
0,      67200,      67200,     9600,    19200, 0x1476501c
0,      76800,      76800,     9600,    19200, 0x1476501c
0,      86400,      86400,     9600,    19200, 0x1476501c
0,      96896,      96896,     9600,    19200, 0x1476501c
0,     106496,     106496,     9600,    19200, 0x1476501c
0,     116096,     116096,     9600,    19200, 0x1476501c
0,     125696,     125696,     9600,    19200, 0x1476501c
0,     135296,     135296,     9600,    19200, 0x1476501c
0,     144896,     144896,     9600,    19200, 0x1476501c
0,     154496,     154496,     9600,    19200, 0x1476501c
0,     164096,     164096,     9600,    19200, 0x1476501c
0,     173696,     173696,     9600,    19200, 0x1476501c
0,     183296,     183296,     9600,    19200, 0x1476501c
0,     192896,     192896,     9600,    19200, 0x1476501c
0,     202496,     202496,     9600,    19200, 0x1476501c
0,     212096,     212096,     9600,    19200, 0x1476501c
0,     221696,     221696,     9600,    19200, 0x1476501c
0,     231296,     231296,     9600,    19200, 0x1476501c
0,     240896,     240896,     9600,    19200, 0x1476501c
0,     250496,     250496,     9600,    19200, 0x1476501c
0,     260096,     260096,     9600,    19200, 0x1476501c
0,     269696,     269696,     9600,    19200, 0x1476501c
0,     279296,     279296,     9600,    19200, 0x1476501c
0,     288896,     288896,     9600,    19200, 0x1476501c
0,     298496,     298496,     9600,    19200, 0x1476501c
0,     308096,     308096,     9600,    19200, 0x1476501c
0,     317696,     317696,     9600,    19200, 0x1476501c
0,     327296,     327296,     9600,    19200, 0x1476501c
0,     336896,     336896,     9600,    19200, 0x1476501c
0,     346496,     346496,     9600,    19200, 0x1476501c
0,     356096,     356096,     9600,    19200, 0x1476501c
0,     365696,     365696,     9600,    19200, 0x1476501c
0,     375296,     375296,     9600,    19200, 0x1476501c
